<svg xmlns="http://www.w3.org/2000/svg" viewBox="0 0 180 180" width="180" height="180">
<defs><marker id="ak" viewBox="0 0 10 10" refX="9" refY="5" markerWidth="7" markerHeight="7" orient="auto-start-reverse"><path d="M0,0 L10,5 L0,10 z" fill="#000"/></marker><marker id="ar" viewBox="0 0 10 10" refX="9" refY="5" markerWidth="7" markerHeight="7" orient="auto-start-reverse"><path d="M0,0 L10,5 L0,10 z" fill="#d00"/></marker><marker id="ab" viewBox="0 0 10 10" refX="9" refY="5" markerWidth="7" markerHeight="7" orient="auto-start-reverse"><path d="M0,0 L10,5 L0,10 z" fill="#1a6fe0"/></marker><marker id="ag" viewBox="0 0 10 10" refX="9" refY="5" markerWidth="7" markerHeight="7" orient="auto-start-reverse"><path d="M0,0 L10,5 L0,10 z" fill="#2a2"/></marker></defs>
<rect width="180" height="180" fill="#fff"/>
<g font-family="'STIX Two Math','Cambria Math','Times New Roman',serif" font-style="italic" font-size="16" fill="#000"><line x1="90" y1="90" x2="90" y2="20" stroke="#000" stroke-width="2"/><line x1="90" y1="90" x2="160" y2="115" stroke="#000" stroke-width="2"/><line x1="90" y1="90" x2="30" y2="145" stroke="#000" stroke-width="2"/><polygon points="50,60 90,40 130,60 130,120 90,140 50,120" fill="none" stroke="#000" stroke-width="2"/><line x1="90" y1="90" x2="50" y2="60" stroke="#000" stroke-width="2"/><line x1="90" y1="90" x2="130" y2="60" stroke="#000" stroke-width="2"/><line x1="90" y1="90" x2="90" y2="140" stroke="#000" stroke-width="2"/><text x="135" y="95" fill="#000" font-size="16">1</text><text x="40" y="155" fill="#000" font-size="16">1</text><text x="95" y="160" fill="#000" font-size="16">1</text></g></svg>