<svg xmlns="http://www.w3.org/2000/svg" viewBox="0 0 560 420" width="560" height="420">
<defs><marker id="a" markerWidth="8" markerHeight="8" refX="7" refY="4" orient="auto"><path d="M0,0 L8,4 L0,8 Z" fill="#000"/></marker></defs>
<rect width="560" height="420" fill="#fff"/>
<g fill="none" stroke="#000" stroke-width="1.8">
<path d="M20,150 C10,110 60,70 100,50 C150,40 175,60 150,100 C120,140 50,170 20,150 Z"/>
<path d="M250,110 C240,70 290,40 330,30 C380,30 400,60 380,100 C350,140 270,160 250,110 Z"/>
<path d="M330,320 C320,290 360,260 400,250 C450,245 470,270 440,300 C410,330 350,350 330,320 Z"/>
<path d="M170,60 C200,40 240,40 270,55" marker-end="url(#a)"/>
<path d="M340,175 C380,200 400,220 405,240" marker-end="url(#a)"/>
</g>
<g fill="#000" font-family="'STIX Two Math','Cambria Math','Times New Roman',serif" font-style="italic" font-size="20">
<circle cx="85" cy="105" r="2"/><text x="92" y="112" font-size="16">X̄</text>
<circle cx="320" cy="85" r="2"/><text x="326" y="92" font-size="16">x̄</text>
<circle cx="400" cy="290" r="2"/><text x="406" y="297" font-size="16">x̄*</text>
<text x="205" y="32" font-size="22">χ̄</text>
<text x="300" y="215" font-size="20">χ*(x̄) = Q̿ x̄ + c̄</text>
</g>
</svg>
