<svg xmlns="http://www.w3.org/2000/svg" viewBox="0 0 560 300" width="560" height="300">
<defs>
<marker id="a" markerWidth="8" markerHeight="8" refX="7" refY="4" orient="auto"><path d="M0,0 L8,4 L0,8 Z" fill="#000"/></marker>
<marker id="r" markerWidth="8" markerHeight="8" refX="7" refY="4" orient="auto"><path d="M0,0 L8,4 L0,8 Z" fill="red"/></marker>
</defs>
<rect width="560" height="300" fill="#fff"/>
<g stroke="#000" stroke-width="1.8" fill="none">
<path d="M20,160 C10,100 60,60 130,50 C190,50 190,100 160,140 C130,175 40,190 20,160 Z"/>
<path d="M330,170 C320,110 340,60 400,50 C450,60 460,110 440,150 C410,185 345,195 330,170 Z"/>
<path d="M190,95 C230,60 260,60 290,75" marker-end="url(#a)"/>
</g>
<line x1="100" y1="115" x2="410" y2="115" stroke="red" stroke-width="1.8" marker-end="url(#r)"/>
<g font-family="'STIX Two Math','Cambria Math','Times New Roman',serif" font-style="italic" font-size="20">
<text x="90" y="135" fill="#000">X̄</text>
<text x="410" y="140" fill="#000">x̄</text>
<text x="235" y="50" fill="#000">χ̄(X̄)</text>
<text x="245" y="140" fill="red">ū</text>
<text x="200" y="175" fill="red">ū = x̄ − X̄</text>
</g>
</svg>
